<svg xmlns="http://www.w3.org/2000/svg" xmlns:xlink="http://www.w3.org/1999/xlink" version="1.1" width="256" height="256" viewBox="0 0 256 256" xml:space="preserve">

<defs>
</defs>
<g style="stroke: none; stroke-width: 0; stroke-dasharray: none; stroke-linecap: butt; stroke-linejoin: miter; stroke-miterlimit: 10; fill: none; fill-rule: nonzero; opacity: 1;" transform="translate(1.4065934065934016 1.4065934065934016) scale(2.81 2.81)" >
	<path d="M 63.278 75.877 c -1.898 0 -3.863 -0.471 -5.672 -1.407 c -2.869 -1.486 -5.331 -4.011 -7.316 -7.504 c -0.396 -0.696 -0.822 -1.521 -0.853 -2.491 c -0.02 -0.656 0.149 -1.251 0.298 -1.775 c 0.039 -0.141 0.079 -0.28 0.114 -0.421 c 0.349 -1.381 0.165 -3.25 -1.062 -4.093 c -1.779 -1.217 -4.449 0.372 -5.226 0.89 c -2.278 1.516 -4.175 3.464 -6.184 5.525 c -0.886 0.91 -1.802 1.852 -2.747 2.742 c -3.962 3.74 -7.699 5.623 -11.422 5.756 c -4.497 0.16 -9.129 -2.418 -12.077 -6.729 c -1.334 -1.951 -2.047 -3.858 -2.121 -5.67 c -0.189 -4.639 3.628 -8.266 7.495 -9.803 c 2.885 -1.146 5.972 -1.468 8.958 -1.779 c 1.001 -0.104 2.003 -0.208 2.996 -0.344 c 2.976 -0.406 7.764 -1.938 8.044 -3.058 c 0.035 -0.139 -0.169 -0.452 -0.705 -0.838 c -0.824 -0.596 -2.38 -0.788 -3.753 -0.957 c -0.814 -0.101 -1.583 -0.195 -2.264 -0.367 c -2.612 -0.659 -4.824 -1.488 -6.763 -2.535 l 0 0 c -5.41 -2.921 -8.909 -8.087 -8.916 -13.161 c -0.002 -2.015 0.509 -4.137 1.521 -6.307 c 0.741 -1.591 1.579 -2.804 2.561 -3.708 c 2.165 -1.993 5.55 -2.85 9.053 -2.287 c 4.055 0.649 7.72 2.933 10.054 6.264 c 0.908 1.296 1.622 2.743 2.312 4.143 c 1.27 2.577 2.47 5.01 4.712 6.286 c 0.445 0.253 1.094 0.531 1.646 0.413 c 0.772 -0.163 1.307 -1.054 1.556 -1.57 c 1.512 -3.13 0.704 -6.723 -0.152 -10.527 c -0.238 -1.062 -0.486 -2.161 -0.674 -3.235 c -0.26 -1.483 -0.477 -3.417 0.163 -5.22 c 0.517 -1.453 1.516 -2.616 2.328 -3.467 c 1.219 -1.277 2.395 -2.219 3.593 -2.879 c 4.607 -2.535 11.034 -1.177 14.33 3.023 c 3.252 4.146 3.232 10.471 -0.045 14.713 c -0.875 1.134 -1.925 2.084 -2.939 3.003 c -1.003 0.908 -1.949 1.765 -2.719 2.769 c -1.408 1.835 -1.988 4.612 -0.522 6.081 c 1.688 1.693 4.914 0.644 5.861 0.282 c 1.423 -0.543 2.826 -1.266 4.184 -1.964 c 1.257 -0.647 2.557 -1.316 3.907 -1.866 c 3.575 -1.455 6.856 -1.656 9.487 -0.581 c 4.038 1.649 6.439 6.499 5.467 11.041 c -0.87 4.073 -4.245 7.603 -8.598 8.992 c -3.768 1.204 -8.171 0.883 -12.395 -0.899 L 68.205 50.1 c -0.831 -0.365 -1.617 -0.71 -2.415 -0.814 c -1.203 -0.157 -2.474 0.396 -3.405 1.479 c -0.931 1.082 -1.287 2.422 -0.953 3.585 c 0.463 1.611 1.853 2.806 3.323 4.069 c 0.309 0.266 0.615 0.529 0.913 0.797 c 1.868 1.679 3.461 3.627 4.734 5.792 c 0.745 1.267 1.574 2.959 1.372 4.818 c -0.209 1.914 -1.545 3.724 -3.575 4.841 C 66.732 75.475 65.033 75.877 63.278 75.877 z M 47.245 55.729 c 0.9 0 1.819 0.221 2.674 0.808 c 2.028 1.391 2.4 4.132 1.87 6.231 c -0.04 0.158 -0.085 0.316 -0.13 0.475 c -0.119 0.424 -0.232 0.823 -0.222 1.17 c 0.016 0.512 0.313 1.076 0.591 1.564 c 1.792 3.151 3.979 5.411 6.498 6.717 c 2.898 1.502 6.233 1.584 8.708 0.221 c 1.46 -0.803 2.414 -2.039 2.552 -3.306 c 0.139 -1.274 -0.52 -2.587 -1.108 -3.588 c -1.169 -1.987 -2.631 -3.777 -4.346 -5.317 c -0.287 -0.258 -0.584 -0.513 -0.881 -0.769 c -1.629 -1.399 -3.313 -2.848 -3.941 -5.033 c -0.521 -1.813 -0.013 -3.848 1.359 -5.442 c 1.372 -1.596 3.311 -2.405 5.18 -2.157 c 1.082 0.142 2.037 0.561 2.96 0.966 l 0.566 0.245 c 3.783 1.598 7.694 1.896 11.009 0.836 c 3.681 -1.175 6.526 -4.121 7.25 -7.505 c 0.763 -3.564 -1.152 -7.499 -4.268 -8.771 c -2.702 -1.104 -5.828 -0.292 -7.978 0.582 c -1.269 0.516 -2.527 1.165 -3.746 1.792 c -1.405 0.724 -2.858 1.472 -4.386 2.055 c -3.337 1.274 -6.252 1.007 -7.99 -0.738 c -2.325 -2.33 -1.555 -6.227 0.352 -8.71 c 0.88 -1.148 1.938 -2.107 2.963 -3.034 c 0.994 -0.9 1.933 -1.75 2.699 -2.743 c 2.69 -3.482 2.714 -8.866 0.054 -12.257 c -2.717 -3.464 -8.007 -4.586 -11.791 -2.506 c -1.018 0.56 -2.035 1.38 -3.11 2.508 c -0.676 0.708 -1.501 1.66 -1.891 2.756 c -0.483 1.362 -0.295 2.963 -0.077 4.206 c 0.179 1.027 0.421 2.102 0.654 3.141 c 0.894 3.971 1.817 8.078 0.002 11.836 c -0.716 1.483 -1.734 2.402 -2.943 2.657 c -0.939 0.195 -1.963 -0.015 -3.048 -0.631 c -2.776 -1.579 -4.17 -4.406 -5.518 -7.14 c -0.656 -1.332 -1.335 -2.709 -2.155 -3.88 c -1.996 -2.849 -5.261 -4.881 -8.733 -5.437 c -2.904 -0.467 -5.664 0.201 -7.382 1.784 c -0.786 0.724 -1.474 1.731 -2.103 3.081 c -0.887 1.902 -1.335 3.739 -1.333 5.459 c 0.005 4.35 3.093 8.826 7.866 11.403 l 0 0 c 1.792 0.967 3.853 1.738 6.302 2.355 c 0.561 0.142 1.269 0.229 2.02 0.322 c 1.612 0.199 3.438 0.424 4.68 1.321 c 1.546 1.118 1.655 2.218 1.473 2.944 c -0.813 3.252 -9.626 4.543 -9.715 4.556 c -1.014 0.138 -2.036 0.244 -3.058 0.351 c -2.981 0.312 -5.798 0.604 -8.427 1.649 c -3.107 1.234 -6.383 4.222 -6.235 7.862 c 0.058 1.431 0.655 2.985 1.774 4.622 c 2.564 3.751 6.524 5.996 10.354 5.86 c 3.216 -0.115 6.527 -1.82 10.121 -5.213 c 0.914 -0.861 1.815 -1.787 2.687 -2.682 c 1.993 -2.047 4.053 -4.163 6.509 -5.797 C 43.372 56.8 45.264 55.729 47.245 55.729 z" style="stroke: none; stroke-width: 1; stroke-dasharray: none; stroke-linecap: butt; stroke-linejoin: miter; stroke-miterlimit: 10; fill: rgb(0,0,0); fill-rule: nonzero; opacity: 1;" transform=" matrix(1 0 0 1 0 0) " stroke-linecap="round" />
	<path d="M 44.625 85.527 c -1.704 0 -3.387 -0.63 -4.818 -1.818 c -2.164 -1.797 -3.551 -4.683 -3.711 -7.72 c -0.139 -2.651 0.539 -5.37 1.861 -7.46 c 1.472 -2.327 3.583 -3.677 5.944 -3.801 c 0.719 -0.035 1.752 0 2.291 0.771 c 0.594 0.851 0.164 1.852 -0.29 2.911 c -0.757 1.768 -1.154 3.008 0.176 4.096 c 2.938 2.402 5.501 6.236 4.607 9.386 c -0.389 1.369 -1.598 3.102 -5.147 3.574 C 45.234 85.507 44.929 85.527 44.625 85.527 z M 44.244 66.72 c -0.069 0 -0.148 0.002 -0.238 0.007 c -1.695 0.089 -3.243 1.108 -4.358 2.872 c -1.105 1.747 -1.672 4.039 -1.554 6.285 c 0.131 2.489 1.249 4.84 2.991 6.286 c 0.887 0.736 2.333 1.561 4.19 1.314 c 1.986 -0.265 3.159 -0.984 3.487 -2.139 c 0.533 -1.879 -1.165 -5.013 -3.95 -7.29 l 0 0 c -2.594 -2.123 -1.438 -4.82 -0.748 -6.433 c 0.122 -0.285 0.276 -0.643 0.357 -0.898 C 44.371 66.722 44.312 66.72 44.244 66.72 z" style="stroke: none; stroke-width: 1; stroke-dasharray: none; stroke-linecap: butt; stroke-linejoin: miter; stroke-miterlimit: 10; fill: rgb(0,0,0); fill-rule: nonzero; opacity: 1;" transform=" matrix(1 0 0 1 0 0) " stroke-linecap="round" />
	<path d="M 10.315 47.507 c -2.15 0 -4.276 -0.703 -6.086 -2.027 c -4.399 -3.218 -5.549 -9.156 -2.564 -13.236 c 0.732 -1.001 1.515 -1.468 2.355 -1.473 c 1.471 0.018 2.51 1.512 3.714 3.242 c 0.95 1.366 2.027 2.915 3.395 3.916 c 1.464 1.071 3.114 1.406 4.439 1.675 c 1.334 0.271 2.486 0.504 2.882 1.527 c 0.368 0.951 -0.213 1.942 -0.831 2.786 c -1.456 1.99 -3.66 3.244 -6.207 3.53 C 11.048 47.486 10.681 47.507 10.315 47.507 z M 3.995 32.771 c -0.083 0 -0.337 0.136 -0.716 0.654 c -2.334 3.19 -1.378 7.874 2.13 10.441 c 1.712 1.252 3.763 1.818 5.781 1.592 c 1.984 -0.223 3.694 -1.19 4.815 -2.723 c 0.314 -0.43 0.452 -0.694 0.512 -0.841 c -0.294 -0.117 -0.89 -0.238 -1.347 -0.331 c -1.437 -0.292 -3.404 -0.691 -5.222 -2.021 l 0 0 c -1.638 -1.198 -2.868 -2.967 -3.856 -4.388 C 5.433 34.208 4.438 32.776 3.995 32.771 C 3.996 32.771 3.996 32.771 3.995 32.771 z" style="stroke: none; stroke-width: 1; stroke-dasharray: none; stroke-linecap: butt; stroke-linejoin: miter; stroke-miterlimit: 10; fill: rgb(0,0,0); fill-rule: nonzero; opacity: 1;" transform=" matrix(1 0 0 1 0 0) " stroke-linecap="round" />
	<path d="M 75.683 27.842 c -0.916 0 -1.84 -0.183 -2.748 -0.583 c -0.664 -0.293 -1.563 -0.792 -1.695 -1.722 c -0.146 -1.027 0.688 -1.727 1.572 -2.468 c 1.474 -1.236 2.387 -2.163 1.691 -3.734 v 0 c -1.537 -3.47 -2.095 -8.048 0.123 -10.455 c 0.965 -1.046 2.828 -2.045 6.206 -0.867 c 1.914 0.668 3.448 2.144 4.322 4.156 c 1.12 2.58 1.056 5.782 -0.172 8.564 C 83.28 24.587 79.552 27.842 75.683 27.842 z M 73.371 25.244 c 0.088 0.051 0.208 0.113 0.372 0.186 c 3.493 1.544 7.686 -1.601 9.409 -5.503 c 1.007 -2.281 1.069 -4.883 0.167 -6.96 c -0.458 -1.057 -1.377 -2.446 -3.146 -3.063 c -1.896 -0.66 -3.264 -0.549 -4.077 0.334 c -1.323 1.436 -1.223 4.999 0.234 8.289 v 0 c 1.357 3.064 -0.892 4.95 -2.235 6.076 C 73.858 24.802 73.56 25.052 73.371 25.244 z" style="stroke: none; stroke-width: 1; stroke-dasharray: none; stroke-linecap: butt; stroke-linejoin: miter; stroke-miterlimit: 10; fill: rgb(0,0,0); fill-rule: nonzero; opacity: 1;" transform=" matrix(1 0 0 1 0 0) " stroke-linecap="round" />
</g>
</svg>