<svg xmlns="http://www.w3.org/2000/svg" xmlns:xlink="http://www.w3.org/1999/xlink" version="1.1" width="256" height="256" viewBox="0 0 256 256" xml:space="preserve">

<defs>
</defs>
<g style="stroke: none; stroke-width: 0; stroke-dasharray: none; stroke-linecap: butt; stroke-linejoin: miter; stroke-miterlimit: 10; fill: none; fill-rule: nonzero; opacity: 1;" transform="translate(1.4065934065934016 1.4065934065934016) scale(2.81 2.81)" >
	<path d="M 18.128 81.594 C 8.132 81.594 0 73.462 0 63.466 s 8.132 -18.128 18.128 -18.128 s 18.128 8.132 18.128 18.128 S 28.124 81.594 18.128 81.594 z M 18.128 49.338 C 10.338 49.338 4 55.676 4 63.466 s 6.338 14.128 14.128 14.128 s 14.128 -6.338 14.128 -14.128 S 25.918 49.338 18.128 49.338 z" style="stroke: none; stroke-width: 1; stroke-dasharray: none; stroke-linecap: butt; stroke-linejoin: miter; stroke-miterlimit: 10; fill: rgb(0,0,0); fill-rule: nonzero; opacity: 1;" transform=" matrix(1 0 0 1 0 0) " stroke-linecap="round" />
	<path d="M 71.872 81.594 c -9.996 0 -18.128 -8.132 -18.128 -18.128 s 8.132 -18.128 18.128 -18.128 S 90 53.47 90 63.466 S 81.868 81.594 71.872 81.594 z M 71.872 49.338 c -7.79 0 -14.128 6.338 -14.128 14.128 s 6.338 14.128 14.128 14.128 S 86 71.256 86 63.466 S 79.662 49.338 71.872 49.338 z" style="stroke: none; stroke-width: 1; stroke-dasharray: none; stroke-linecap: butt; stroke-linejoin: miter; stroke-miterlimit: 10; fill: rgb(0,0,0); fill-rule: nonzero; opacity: 1;" transform=" matrix(1 0 0 1 0 0) " stroke-linecap="round" />
	<path d="M 41.337 52.221 l -11.662 -8.252 c -2.611 -1.847 -3.138 -5.506 -1.155 -8.015 l 9.885 -12.509 c 2.217 -2.805 6.462 -2.831 8.713 -0.054 l 6.005 7.408 c 0.864 1.066 2.045 1.828 3.372 2.177 l 9.857 1.924 c 1.258 0.33 2.059 1.627 1.693 2.966 c -0.298 1.09 -1.4 1.764 -2.529 1.726 l -10.736 -0.27 c -1.748 -0.057 -3.398 -0.822 -4.571 -2.119 l -3.883 -4.293 c -0.034 -0.037 -0.092 -0.037 -0.126 0 l -5.659 6.256 c -0.033 0.036 -0.028 0.092 0.01 0.123 l 9.198 7.4 c 1.408 1.133 2.06 2.962 1.687 4.73 L 47.47 70.188 c -0.232 1.673 -1.662 2.919 -3.35 2.919 h 0 c -1.868 0 -3.382 -1.514 -3.382 -3.382 l 1.701 -15.045 C 42.547 53.721 42.125 52.779 41.337 52.221 z" style="stroke: none; stroke-width: 1; stroke-dasharray: none; stroke-linecap: butt; stroke-linejoin: miter; stroke-miterlimit: 10; fill: rgb(0,0,0); fill-rule: nonzero; opacity: 1;" transform=" matrix(1 0 0 1 0 0) " stroke-linecap="round" />
	<circle cx="54.501" cy="17.181" r="6.771" style="stroke: none; stroke-width: 1; stroke-dasharray: none; stroke-linecap: butt; stroke-linejoin: miter; stroke-miterlimit: 10; fill: rgb(0,0,0); fill-rule: nonzero; opacity: 1;" transform="  matrix(1 0 0 1 0 0) "/>
</g>
</svg>