<svg xmlns="http://www.w3.org/2000/svg" xmlns:xlink="http://www.w3.org/1999/xlink" version="1.1" width="256" height="256" viewBox="0 0 256 256" xml:space="preserve">

<defs>
</defs>
<g style="stroke: none; stroke-width: 0; stroke-dasharray: none; stroke-linecap: butt; stroke-linejoin: miter; stroke-miterlimit: 10; fill: none; fill-rule: nonzero; opacity: 1;" transform="translate(1.4065934065934016 1.4065934065934016) scale(2.81 2.81)" >
	<path d="M 78.786 90 H 45.06 c -0.451 0 -0.846 -0.302 -0.965 -0.737 c -9.255 -33.961 -6.614 -58.203 8.074 -74.112 c 0.188 -0.205 0.455 -0.322 0.734 -0.322 h 18.039 c 0.279 0 0.546 0.117 0.734 0.322 c 14.688 15.909 17.329 40.152 8.074 74.112 C 79.633 89.698 79.237 90 78.786 90 z M 45.825 88 h 32.195 c 8.762 -32.625 6.3 -55.916 -7.519 -71.171 H 53.344 C 39.525 32.083 37.064 55.375 45.825 88 z" style="stroke: none; stroke-width: 1; stroke-dasharray: none; stroke-linecap: butt; stroke-linejoin: miter; stroke-miterlimit: 10; fill: rgb(0,0,0); fill-rule: nonzero; opacity: 1;" transform=" matrix(1 0 0 1 0 0) " stroke-linecap="round" />
	<path d="M 61.907 81.905 c -4.861 0 -9.746 -3.569 -13.153 -9.648 c -5.37 -9.581 -6.787 -25.117 2.15 -38.228 c 0.874 -1.282 2.399 -1.817 3.894 -1.365 c 1.509 0.46 2.49 1.774 2.501 3.348 l 0 0 c 0.116 17.003 5.396 26.264 16.141 28.31 c 1.052 0.2 1.942 0.86 2.443 1.811 c 0.499 0.948 0.54 2.053 0.111 3.031 c -4.457 10.188 -9.856 12.546 -13.601 12.73 C 62.231 81.901 62.069 81.905 61.907 81.905 z M 53.756 34.509 c -0.419 0 -0.874 0.17 -1.199 0.647 c -8.455 12.402 -7.126 27.079 -2.058 36.122 c 3.142 5.606 7.584 8.836 11.796 8.617 c 4.561 -0.225 8.664 -4.213 11.867 -11.534 c 0.183 -0.418 0.165 -0.891 -0.049 -1.297 c -0.216 -0.409 -0.598 -0.692 -1.049 -0.778 c -11.667 -2.222 -17.644 -12.403 -17.766 -30.261 l 0 0 c -0.006 -0.826 -0.563 -1.29 -1.084 -1.448 C 54.073 34.534 53.917 34.509 53.756 34.509 z" style="stroke: none; stroke-width: 1; stroke-dasharray: none; stroke-linecap: butt; stroke-linejoin: miter; stroke-miterlimit: 10; fill: rgb(0,0,0); fill-rule: nonzero; opacity: 1;" transform=" matrix(1 0 0 1 0 0) " stroke-linecap="round" />
	<path d="M 75.179 60.064 c -3.426 0 -7.687 -4.649 -10.426 -11.653 c -3.092 -7.908 -2.724 -14.928 0.856 -16.329 c 3.573 -1.395 8.612 3.506 11.706 11.417 l 0 0 c 1.398 3.576 2.138 7.179 2.08 10.147 c -0.063 3.271 -1.105 5.466 -2.936 6.182 C 76.051 59.987 75.621 60.064 75.179 60.064 z M 66.921 33.84 c -0.209 0 -0.404 0.035 -0.583 0.104 c -2.09 0.818 -2.489 6.661 0.278 13.738 s 7.021 11.096 9.115 10.281 c 0.997 -0.39 1.62 -2.019 1.665 -4.357 c 0.052 -2.711 -0.639 -6.042 -1.944 -9.379 l 0 0 C 72.923 37.757 69.147 33.84 66.921 33.84 z" style="stroke: none; stroke-width: 1; stroke-dasharray: none; stroke-linecap: butt; stroke-linejoin: miter; stroke-miterlimit: 10; fill: rgb(0,0,0); fill-rule: nonzero; opacity: 1;" transform=" matrix(1 0 0 1 0 0) " stroke-linecap="round" />
	<path d="M 70.942 16.829 H 52.903 c -0.553 0 -1 -0.448 -1 -1 V 8.415 c 0 -0.552 0.447 -1 1 -1 h 18.039 c 0.553 0 1 0.448 1 1 v 7.415 C 71.942 16.381 71.495 16.829 70.942 16.829 z M 53.903 14.829 h 16.039 V 9.415 H 53.903 V 14.829 z" style="stroke: none; stroke-width: 1; stroke-dasharray: none; stroke-linecap: butt; stroke-linejoin: miter; stroke-miterlimit: 10; fill: rgb(0,0,0); fill-rule: nonzero; opacity: 1;" transform=" matrix(1 0 0 1 0 0) " stroke-linecap="round" />
	<path d="M 66.433 9.415 h -9.02 c -0.553 0 -1 -0.448 -1 -1 V 1 c 0 -0.552 0.447 -1 1 -1 h 9.02 c 0.553 0 1 0.448 1 1 v 7.415 C 67.433 8.967 66.985 9.415 66.433 9.415 z M 58.413 7.415 h 7.02 V 2 h -7.02 V 7.415 z" style="stroke: none; stroke-width: 1; stroke-dasharray: none; stroke-linecap: butt; stroke-linejoin: miter; stroke-miterlimit: 10; fill: rgb(0,0,0); fill-rule: nonzero; opacity: 1;" transform=" matrix(1 0 0 1 0 0) " stroke-linecap="round" />
	<path d="M 41.46 73.923 H 9.909 c -2.768 0 -5.019 -2.252 -5.019 -5.02 c 0 -1.643 0.793 -3.104 2.016 -4.02 c -1.223 -0.916 -2.016 -2.377 -2.016 -4.02 c 0 -2.768 2.251 -5.02 5.019 -5.02 h 29.871 c 0.541 0 0.984 0.43 1 0.971 c 0.146 4.956 0.707 10.318 1.667 15.939 c 0.049 0.29 -0.032 0.588 -0.222 0.813 C 42.034 73.793 41.754 73.923 41.46 73.923 z M 9.909 65.884 c -1.665 0 -3.019 1.354 -3.019 3.02 s 1.354 3.02 3.019 3.02 H 40.28 c -0.799 -4.926 -1.291 -9.651 -1.466 -14.078 H 9.909 c -1.665 0 -3.019 1.354 -3.019 3.02 s 1.354 3.02 3.019 3.02 c 0.552 0 1 0.447 1 1 S 10.461 65.884 9.909 65.884 z" style="stroke: none; stroke-width: 1; stroke-dasharray: none; stroke-linecap: butt; stroke-linejoin: miter; stroke-miterlimit: 10; fill: rgb(0,0,0); fill-rule: nonzero; opacity: 1;" transform=" matrix(1 0 0 1 0 0) " stroke-linecap="round" />
	<path d="M 45.06 90 H 13.928 c -4.984 0 -9.039 -4.055 -9.039 -9.039 c 0 -4.983 4.055 -9.038 9.039 -9.038 H 41.46 c 0.487 0 0.904 0.352 0.986 0.831 c 0.867 5.074 2.071 10.451 3.579 15.983 c 0.082 0.301 0.019 0.622 -0.17 0.87 C 45.665 89.854 45.371 90 45.06 90 z M 13.928 73.923 c -3.881 0 -7.039 3.157 -7.039 7.038 c 0 3.882 3.158 7.039 7.039 7.039 h 29.827 c -1.287 -4.851 -2.34 -9.576 -3.136 -14.077 H 13.928 z" style="stroke: none; stroke-width: 1; stroke-dasharray: none; stroke-linecap: butt; stroke-linejoin: miter; stroke-miterlimit: 10; fill: rgb(0,0,0); fill-rule: nonzero; opacity: 1;" transform=" matrix(1 0 0 1 0 0) " stroke-linecap="round" />
	<path d="M 39.735 65.884 H 9.909 c -0.552 0 -1 -0.447 -1 -1 s 0.448 -1 1 -1 h 29.826 c 0.552 0 1 0.447 1 1 S 40.287 65.884 39.735 65.884 z" style="stroke: none; stroke-width: 1; stroke-dasharray: none; stroke-linecap: butt; stroke-linejoin: miter; stroke-miterlimit: 10; fill: rgb(0,0,0); fill-rule: nonzero; opacity: 1;" transform=" matrix(1 0 0 1 0 0) " stroke-linecap="round" />
	<path d="M 43.042 81.905 H 17.766 c -0.552 0 -1 -0.447 -1 -1 s 0.448 -1 1 -1 h 25.275 c 0.552 0 1 0.447 1 1 S 43.594 81.905 43.042 81.905 z" style="stroke: none; stroke-width: 1; stroke-dasharray: none; stroke-linecap: butt; stroke-linejoin: miter; stroke-miterlimit: 10; fill: rgb(0,0,0); fill-rule: nonzero; opacity: 1;" transform=" matrix(1 0 0 1 0 0) " stroke-linecap="round" />
</g>
</svg>